<svg version="1.2" xmlns="http://www.w3.org/2000/svg" viewBox="0 0 1640 664" width="1640" height="664">
	<title>New Project</title>
	<style>
		.s0 { fill: #eeeacd } 
	</style>
	<path id="{Mukti:}" class="s0" aria-label="{Mukti:}"  d="m225.4 287.5v-73.7q0-44.5 32.1-51.5 15-3.4 41.2-3.4v7.3q-22.7 4.7-33.2 27.3-4.5 9.8-4.7 20.3l-0.6 62.3q-4.5 29.5-6.6 35.2-6.7 17.2-25.6 22.1v1.1q31.8 7.6 32.2 50.8l0.6 69.7q2.7 16.8 12.1 29.3 10.5 14.3 25.8 17.4v6.5q-25.4 0-35-1.8-21.3-3.9-30.1-18-7.2-11.7-7.4-34.9l-0.8-73.7q-0.4-37.5-29.1-46 23.9-6.9 27.6-26.2 1.5-8 1.5-20.1zm385-34.4v23.4h-64.5l0.4 27.4q26.6 9.7 38.3 25.6 12.1 16.4 12.1 44.3 0 40.2-32.2 69.1-6.1 5.5-18.6 14.3-15.4 10.9-19.5 10.9-4.1 0-37.7-34.3 20.7-1.2 43.2-13.3 21.3-11.4 36.1-27.8 16-17.5 16-37.3 0-19.5-21.6-27.1-10.6-3.7-20.9-3.3-63.3 2.5-77.6 73.6l-40-16.4q0-16.4 12.7-36.7 4.7-7.5 4.9-8.4 0-9.2-26.4-9.2-33.8 0-52.6 29.7-8.2 13.1-8.2 26.2 0 27.3 25.2 51.7l37.1 35.9q-33.9-11.7-63-33.9-38.9-29.7-38.9-63.7 0-43 43.4-64.1 18.9-9.2 39-9.2 25.8 0 51.6 15.5 9.7 5.8 11.3 6.2 14.9-6.4 32.6-13.8 9.4-3.9 19-5.3l0.4-26.6h-203.2v-23.4zm216.2 0v23.4h-163.4v125.2q0 12.5 5.2 25.8 10.8 27.1 35.6 27.1 33.4 0 50.8-27.9 13.4-21.5 13.4-40.4v-77.7h39.7v166.4q-4.7-2.8-17.6-8.4l-22.4-10v-15.6q-23.1 16.8-39.5 21.3-10 2.7-23.6 2.7-43.4 0-67.8-38.1-11.1-17.4-11.1-37.9v-112.5h-23.7v-23.4zm180.5 0v23.4h-128.1v50.4q11.5-6.6 37.7-17.4 10.7-2.9 25.9-2.9 20.9 0 37.4 11.5 18.3 12.7 18.3 32.8 0 27.2-31 39.5-12.9 5.1-22.3 5.1l45.3 55-24.8 18-69.7-82.8 12.9-26.8q10.3 3 21.6 3 16.6 0 27.2-7.8 11.9-8.6 11.9-24.6 0-15.7-22.3-15.7-15.6 0-33.2 15.1-12.5 10.7-22.8 25.9-12.5 18.4-12.5 31.5v81.8l-33.6-15v-176.6h-24.8v-23.4h23.6q0-56.1-20.3-93.2-3.9-7.2-15-21.7-10.6-13.8-14.7-22h39.7q11.5 10.7 23.8 35.3 20.9 41.8 20.9 101.6zm170.5 0v23.4h-98.8v157.3q0 6.6 4.3 12.8 4.5 6.9 10.9 6.9 29.1 0 29.1-60.2l39.3 22.5q-22.5 49.8-69.6 49.6-27.3-0.2-42.5-25-6.7-10.8-6.7-21.5v-142.4h-40.8v-23.4h40.8v-65.6l35.2 24.4v41.2zm63.5-20.5q-0.8 0.8-4.5 0.8-3.2 0-5.5-0.8l-12.7-26q-7.8-12.3-21.3-16.6-13.3-4.5-16.4-9.8-2.9-9-11.3-27.5v-4.5h7.6q15 4.7 24.4 8.8 15.4 6.8 20.7 15.8 2.9 4.9 9 25 5.7 19 9.6 26.4 0.4 3.5 0.4 8.4zm11.5 20.5v23.4h-79.5v-23.4zm-22.3 47.4v169l-32.8-18.2v-150.8zm93.9-47.4v23.4h-75.1v-23.4zm-13.7 76.4q-1 2.1-11.9 8.7-10.8 6.5-13.3 6.5-1.4 0-10.4-6.8-8.8-6.9-10.3-8.8l21.5-17.2q2.3 0 24.4 17.6zm0 111.9q-2.8 2.7-12.7 9-10 6.2-12.5 6.2-5.1 0-20.7-15.6l21.5-17.2q2.3 0 24.4 17.6zm113.8-103.5q-28.3 9.1-28.7 45.8l-0.7 73.7q-0.4 44.9-31.1 51.3-14.8 3.2-41.4 3.2v-6.1q15.2-3.3 26-17.8 9.5-12.8 12.1-29.4l0.4-69.2q1.7-11.9 7.8-32.6 6.8-13.9 24.6-18.2v-1.1q-18.6-4.9-25.2-21.9-2.9-7.4-4.7-19l-2.5-16.4-0.4-62.5q-0.2-17.3-10.8-31-10.5-13.7-27.3-16.4v-7.3q24.8 0 35.2 2 21.6 4.1 30.4 17.8 7.6 11.9 7.6 34.9v73.3q0 18.1 4.1 27.5 6.1 13.7 24.6 19.4z"/>
</svg>